<?xml version="1.0" encoding="utf-8"?>
<!-- Generator: Adobe Illustrator 27.0.0, SVG Export Plug-In . SVG Version: 6.00 Build 0)  -->
<svg version="1.1" id="Layer_1" xmlns="http://www.w3.org/2000/svg" xmlns:xlink="http://www.w3.org/1999/xlink" x="0px" y="0px"
	 viewBox="0 0 300 100" enable-background="new 0 0 300 100" xml:space="preserve">
<g>
	<g>
		<g>
			<g>
				<path fill="#FFFFFF" d="M58.1,12.67c0.15,5.39-2.11,8.87-6.69,11.56c-5.62,3.29-11.42,6.68-17.07,9.93
					c-6.26,3.6-7.82,8.01-3.33,13.82c-1.46,3.21-6.56,2.62-9.37,2.15c-3.15-1.92-4.07-6.1-3.89-9.53c0.25-4.87,2.84-9.51,6.37-12.8
					c8.57-6.46,17.14-12.91,25.73-19.34c3.39-2.54,8.22-0.13,8.25,4.11C58.1,12.6,58.1,12.63,58.1,12.67z"/>
				<path fill="#FFFFFF" d="M31.01,47.98c0,0-0.68-0.55-1.81-1.56c-5.34-4.76-12.31-12.13-5.08-18.62c-2.38,1.81-4.38,3.99-6.1,6.29
					c-5.12,6.85-4.12,17.88-3.88,26.11c0.12,3.96,4.79,4.83,7.76,3.25c3.27-1.74,6.76-3.69,9.93-5.4
					C36.7,55.44,34.31,50.63,31.01,47.98z"/>
			</g>
		</g>
	</g>
	<g>
		<path fill="#FFFFFF" d="M68.98,27.11v6.27h-5.46v-6.27H68.98z M68.92,37.26v26.93h-5.41V37.26H68.92z"/>
		<path fill="#FFFFFF" d="M94.53,37.26c6.43,0,9.9,3.77,9.9,11.53V64.3c0,7.65-2.65,10.66-10.2,10.66H78.21v-5.2h15.4
			c4.03,0,5.36-1.58,5.36-5.46v-1.22H87.08c-7.19,0-11.68-4.23-11.68-12.96c0-8.67,4.49-12.85,11.68-12.85h7.45V37.26z M87.59,58.18
			h11.37v-9.44c0-4.39-1.68-6.27-6.02-6.27h-5.36c-4.64,0-6.73,2.35-6.73,7.86C80.86,55.83,82.95,58.18,87.59,58.18z"/>
		<path fill="#FFFFFF" d="M126.87,37.26c9.13,0,13.57,4.34,13.57,11.78v15.15h-5.46V49.04c0-4.23-2.45-6.58-8.11-6.58h-8.82
			c-0.46,0-0.66,0.26-0.66,0.77v20.96h-5.41V41.44c0-3.16,1.07-4.18,3.77-4.18H126.87z"/>
		<path fill="#FFFFFF" d="M165.28,37.26c6.73,0,9.39,3.77,9.39,8.88v12.65c0,3.88-1.02,5.41-5.56,5.41h-12.6
			c-6.38,0-9.03-3.11-9.03-8.21c0-4.9,2.45-7.75,9.08-7.75h12.8V46.2c0-2.09-1.17-3.72-4.13-3.72h-16.12v-5.2h16.17V37.26z
			 M169.36,57.56v-5.05h-12.7c-2.86,0-3.88,1.17-3.88,3.16s1.07,3.26,3.77,3.26h11.32C168.95,58.94,169.36,58.53,169.36,57.56z"/>
		<path fill="#FFFFFF" d="M183.29,37.26v-6.38h5.46v6.38h7.45v5.2h-7.45v12.75c0,3.01,1.07,4.03,3.62,4.03h3.72v4.95h-4.85
			c-5.56,0-7.96-2.24-7.96-9.28V42.46h-3.67v-5.2H183.29z"/>
		<path fill="#FFFFFF" d="M206.75,37.26v16.12c0,3.16,2.35,5.56,6.63,5.56h4.39c4.28,0,6.58-2.4,6.58-5.56V37.26h5.3v16.32
			c0,6.22-3.98,10.61-11.68,10.61h-5c-7.7,0-11.68-4.39-11.68-10.61V37.26H206.75z"/>
		<path fill="#FFFFFF" d="M255.57,37.26v5.2h-9.49c-2.4,0-3.47,1.12-3.47,3.47v18.26h-5.41V45.12c0-5.41,1.99-7.86,7.29-7.86H255.57
			z"/>
		<path fill="#FFFFFF" d="M278.42,37.26c6.38,0,9.08,3.06,9.08,8.26c0,4.95-2.5,7.75-9.13,7.75h-12.8v1.94
			c0,2.14,1.17,3.72,4.13,3.72h16.48v5.25H269.7c-6.73,0-9.39-3.77-9.39-8.88v-9.18c0-5.1,2.65-8.88,9.39-8.88h8.72V37.26z
			 M265.57,49.04h12.65c2.91,0,3.98-1.22,3.98-3.21c0-2.04-1.17-3.37-3.83-3.37h-8.67c-2.96,0-4.13,1.63-4.13,3.72V49.04z"/>
	</g>
	<g>
		<g>
			<g>
				<path fill="#FFFFFF" d="M12.51,87.33c-0.15-5.39,2.11-8.87,6.69-11.56c5.62-3.29,11.42-6.68,17.07-9.93
					c6.26-3.6,7.82-8.01,3.33-13.82c1.46-3.21,6.56-2.62,9.37-2.15c3.15,1.92,4.07,6.1,3.89,9.53c-0.25,4.87-2.84,9.51-6.37,12.8
					c-8.57,6.46-17.14,12.91-25.73,19.34c-3.39,2.54-8.22,0.13-8.25-4.11C12.51,87.4,12.51,87.37,12.51,87.33z"/>
				<path fill="#FFFFFF" d="M39.59,52.02c0,0,0.68,0.55,1.81,1.56c5.34,4.76,12.31,12.13,5.08,18.62c2.38-1.81,4.38-3.99,6.1-6.29
					c5.12-6.85,4.12-17.88,3.88-26.11c-0.12-3.96-4.79-4.83-7.76-3.25c-3.27,1.74-6.76,3.69-9.93,5.4
					C33.91,44.56,36.3,49.37,39.59,52.02z"/>
			</g>
		</g>
	</g>
</g>
</svg>
